<svg xmlns="http://www.w3.org/2000/svg" xmlns:xlink="http://www.w3.org/1999/xlink" viewBox="0,0,256,256" width="96px" height="96px"><g fill="#88050d" fill-rule="nonzero" stroke="none" stroke-width="1" stroke-linecap="butt" stroke-linejoin="miter" stroke-miterlimit="10" stroke-dasharray="" stroke-dashoffset="0" font-family="none" font-weight="none" font-size="none" text-anchor="none" style="mix-blend-mode: normal"><g transform="scale(9.84615,9.84615)"><path d="M13,0c-7.18,0 -13,5.82 -13,13c0,6.518 4.801,11.899 11.057,12.839v-9.394h-3.217v-3.417h3.217v-2.274c0,-3.765 1.834,-5.417 4.963,-5.417c1.498,0 2.291,0.111 2.666,0.162v2.983h-2.134c-1.328,0 -1.792,1.259 -1.792,2.679v1.868h3.893l-0.528,3.417h-3.365v9.422c6.345,-0.862 11.24,-6.287 11.24,-12.868c0,-7.18 -5.82,-13 -13,-13z"></path></g></g></svg>