<svg width="34" height="34" viewBox="0 0 34 34" fill="none" xmlns="http://www.w3.org/2000/svg">
<circle cx="17" cy="17" r="16.75" stroke="#EEEEEE" stroke-width="0.5"/>
<path d="M20.7799 12.3649C20.6118 12.3649 20.4474 12.4147 20.3077 12.5081C20.1679 12.6015 20.0589 12.7343 19.9946 12.8896C19.9303 13.0449 19.9134 13.2158 19.9462 13.3807C19.979 13.5456 20.06 13.6971 20.1789 13.8159C20.2977 13.9348 20.4492 14.0158 20.6141 14.0486C20.779 14.0814 20.9499 14.0645 21.1052 14.0002C21.2605 13.9359 21.3932 13.8269 21.4866 13.6871C21.58 13.5473 21.6299 13.383 21.6299 13.2149C21.6299 12.9895 21.5403 12.7733 21.3809 12.6139C21.2215 12.4544 21.0053 12.3649 20.7799 12.3649ZM24.0382 14.0791C24.0245 13.4914 23.9144 12.9099 23.7124 12.3578C23.5323 11.8854 23.252 11.4577 22.8907 11.1041C22.54 10.741 22.1112 10.4624 21.637 10.2895C21.0864 10.0813 20.5042 9.96875 19.9157 9.95656C19.1649 9.91406 18.9241 9.91406 16.9974 9.91406C15.0707 9.91406 14.8299 9.91406 14.0791 9.95656C13.4905 9.96875 12.9084 10.0813 12.3578 10.2895C11.8844 10.4642 11.4561 10.7425 11.1041 11.1041C10.741 11.4548 10.4624 11.8835 10.2895 12.3578C10.0813 12.9084 9.96875 13.4905 9.95656 14.0791C9.91406 14.8299 9.91406 15.0707 9.91406 16.9974C9.91406 18.9241 9.91406 19.1649 9.95656 19.9157C9.96875 20.5042 10.0813 21.0864 10.2895 21.637C10.4624 22.1112 10.741 22.54 11.1041 22.8907C11.4561 23.2523 11.8844 23.5306 12.3578 23.7053C12.9084 23.9134 13.4905 24.026 14.0791 24.0382C14.8299 24.0807 15.0707 24.0807 16.9974 24.0807C18.9241 24.0807 19.1649 24.0807 19.9157 24.0382C20.5042 24.026 21.0864 23.9134 21.637 23.7053C22.1112 23.5324 22.54 23.2538 22.8907 22.8907C23.2536 22.5384 23.5341 22.1103 23.7124 21.637C23.9144 21.0849 24.0245 20.5034 24.0382 19.9157C24.0382 19.1649 24.0807 18.9241 24.0807 16.9974C24.0807 15.0707 24.0807 14.8299 24.0382 14.0791ZM22.7632 19.8307C22.7581 20.2804 22.6766 20.7259 22.5224 21.1482C22.4093 21.4565 22.2276 21.735 21.9911 21.9628C21.7614 22.1969 21.4834 22.3782 21.1766 22.4941C20.7542 22.6483 20.3087 22.7297 19.8591 22.7349C19.1507 22.7703 18.8886 22.7774 17.0257 22.7774C15.1628 22.7774 14.9007 22.7774 14.1924 22.7349C13.7255 22.7436 13.2607 22.6717 12.8182 22.5224C12.5248 22.4006 12.2596 22.2198 12.0391 21.9911C11.804 21.7636 11.6246 21.4848 11.5149 21.1766C11.342 20.7481 11.246 20.2925 11.2316 19.8307C11.2316 19.1224 11.1891 18.8603 11.1891 16.9974C11.1891 15.1345 11.1891 14.8724 11.2316 14.1641C11.2347 13.7044 11.3187 13.2489 11.4795 12.8182C11.6042 12.5192 11.7956 12.2527 12.0391 12.0391C12.2543 11.7955 12.5202 11.6021 12.8182 11.4724C13.25 11.3166 13.7051 11.2352 14.1641 11.2316C14.8724 11.2316 15.1345 11.1891 16.9974 11.1891C18.8603 11.1891 19.1224 11.1891 19.8307 11.2316C20.2804 11.2367 20.7259 11.3182 21.1482 11.4724C21.4701 11.5919 21.759 11.7861 21.9911 12.0391C22.2233 12.2566 22.4046 12.5227 22.5224 12.8182C22.6798 13.2496 22.7613 13.7049 22.7632 14.1641C22.7986 14.8724 22.8057 15.1345 22.8057 16.9974C22.8057 18.8603 22.7986 19.1224 22.7632 19.8307ZM16.9974 13.3636C16.279 13.365 15.5772 13.5794 14.9805 13.9795C14.3839 14.3796 13.9192 14.9476 13.6453 15.6117C13.3714 16.2758 13.3004 17.0062 13.4414 17.7106C13.5824 18.415 13.9291 19.0619 14.4375 19.5693C14.946 20.0768 15.5935 20.4222 16.2982 20.5618C17.0029 20.7015 17.7331 20.6291 18.3967 20.3539C19.0603 20.0786 19.6274 19.6129 20.0263 19.0155C20.4253 18.418 20.6382 17.7158 20.6382 16.9974C20.6392 16.5193 20.5456 16.0458 20.3629 15.6041C20.1801 15.1623 19.9119 14.7611 19.5735 14.4233C19.2351 14.0856 18.8334 13.8182 18.3913 13.6363C17.9491 13.4544 17.4754 13.3618 16.9974 13.3636ZM16.9974 19.3561C16.5309 19.3561 16.0748 19.2178 15.6869 18.9586C15.299 18.6994 14.9967 18.3311 14.8182 17.9001C14.6397 17.469 14.593 16.9948 14.684 16.5372C14.775 16.0797 14.9996 15.6594 15.3295 15.3295C15.6594 14.9996 16.0797 14.775 16.5372 14.684C16.9948 14.593 17.469 14.6397 17.9001 14.8182C18.3311 14.9967 18.6994 15.299 18.9586 15.6869C19.2178 16.0748 19.3561 16.5309 19.3561 16.9974C19.3561 17.3072 19.2951 17.6139 19.1766 17.9001C19.0581 18.1862 18.8843 18.4463 18.6653 18.6653C18.4463 18.8843 18.1862 19.0581 17.9001 19.1766C17.6139 19.2951 17.3072 19.3561 16.9974 19.3561Z" fill="#EEEEEE"/>
</svg>
